<?xml version="1.0" encoding="utf-8"?>
<!-- Generator: Adobe Illustrator 15.0.0, SVG Export Plug-In  -->
<!DOCTYPE svg PUBLIC "-//W3C//DTD SVG 1.1//EN" "http://www.w3.org/Graphics/SVG/1.1/DTD/svg11.dtd" [
	<!ENTITY ns_flows "http://ns.adobe.com/Flows/1.0/">
]>
<svg version="1.1"
	 xmlns="http://www.w3.org/2000/svg" xmlns:xlink="http://www.w3.org/1999/xlink" xmlns:a="http://ns.adobe.com/AdobeSVGViewerExtensions/3.0/"
	 x="0px" y="0px" width="343px" height="165px" viewBox="-1 -2.058 343 165" enable-background="new -1 -2.058 343 165"
	 xml:space="preserve">
<defs>
</defs>
<path fill="#1A1A1A" d="M8.285,84.042c-3.865-4.115-5.796-9.491-5.796-16.128v-2.898c0-0.839,0.419-1.26,1.26-1.26h6.174
	c0.838,0,1.26,0.421,1.26,1.26v2.52c0,4.453,1.134,8.044,3.402,10.773c2.268,2.73,5.207,4.095,8.82,4.095
	c3.528,0,6.467-1.301,8.82-3.906c2.351-2.603,3.528-6.048,3.528-10.332c0-2.854-0.567-5.312-1.701-7.371
	c-1.134-2.057-2.604-3.863-4.41-5.418c-1.807-1.553-4.81-3.926-9.009-7.119c-4.201-3.106-7.519-5.774-9.954-8.001
	c-2.437-2.225-4.432-4.892-5.985-8.001c-1.555-3.106-2.331-6.761-2.331-10.962c0-6.552,1.89-11.738,5.67-15.561
	C11.813,1.912,16.727,0,22.775,0c6.382,0,11.485,2.079,15.309,6.237c3.821,4.158,5.733,9.683,5.733,16.569v3.15
	c0,0.841-0.421,1.26-1.26,1.26h-6.3c-0.841,0-1.26-0.419-1.26-1.26V22.68c0-4.452-1.114-8.042-3.339-10.773
	c-2.227-2.729-5.188-4.095-8.883-4.095c-3.361,0-6.133,1.197-8.316,3.591c-2.186,2.394-3.276,5.776-3.276,10.143
	c0,2.605,0.482,4.895,1.449,6.867c0.965,1.975,2.414,3.843,4.347,5.607c1.931,1.764,4.788,4.075,8.568,6.93
	c5.04,3.697,8.798,6.7,11.277,9.009c2.477,2.312,4.388,4.832,5.733,7.56c1.343,2.73,2.016,6.028,2.016,9.891
	c0,6.889-1.975,12.411-5.922,16.569c-3.949,4.158-9.031,6.237-15.246,6.237C17.188,90.216,12.148,88.159,8.285,84.042z"/>
<path fill="#1A1A1A" d="M61.48,83.538c-3.949-4.452-5.922-10.332-5.922-17.64V2.268c0-0.839,0.419-1.26,1.26-1.26h6.426
	c0.839,0,1.26,0.421,1.26,1.26v64.638c0,4.621,1.153,8.359,3.465,11.214c2.309,2.856,5.355,4.284,9.135,4.284
	c3.863,0,6.972-1.427,9.324-4.284c2.351-2.855,3.528-6.593,3.528-11.214V2.268c0-0.839,0.419-1.26,1.26-1.26h6.426
	c0.839,0,1.26,0.421,1.26,1.26v63.63c0,7.308-1.997,13.188-5.985,17.64c-3.99,4.453-9.261,6.678-15.813,6.678
	C70.635,90.216,65.428,87.991,61.48,83.538z"/>
<path fill="#1A1A1A" d="M115.875,84.042c-3.865-4.115-5.796-9.491-5.796-16.128v-2.898c0-0.839,0.419-1.26,1.26-1.26h6.174
	c0.838,0,1.26,0.421,1.26,1.26v2.52c0,4.453,1.134,8.044,3.402,10.773c2.268,2.73,5.207,4.095,8.82,4.095
	c3.528,0,6.467-1.301,8.82-3.906c2.351-2.603,3.528-6.048,3.528-10.332c0-2.854-0.567-5.312-1.701-7.371
	c-1.134-2.057-2.604-3.863-4.41-5.418c-1.807-1.553-4.81-3.926-9.009-7.119c-4.201-3.106-7.519-5.774-9.954-8.001
	c-2.437-2.225-4.432-4.892-5.985-8.001c-1.555-3.106-2.331-6.761-2.331-10.962c0-6.552,1.89-11.738,5.67-15.561
	C119.403,1.912,124.316,0,130.365,0c6.382,0,11.485,2.079,15.309,6.237c3.821,4.158,5.733,9.683,5.733,16.569v3.15
	c0,0.841-0.421,1.26-1.26,1.26h-6.3c-0.841,0-1.26-0.419-1.26-1.26V22.68c0-4.452-1.114-8.042-3.339-10.773
	c-2.227-2.729-5.188-4.095-8.883-4.095c-3.361,0-6.133,1.197-8.316,3.591c-2.186,2.394-3.276,5.776-3.276,10.143
	c0,2.605,0.482,4.895,1.449,6.867c0.965,1.975,2.414,3.843,4.347,5.607c1.931,1.764,4.788,4.075,8.568,6.93
	c5.04,3.697,8.798,6.7,11.277,9.009c2.477,2.312,4.388,4.832,5.733,7.56c1.343,2.73,2.016,6.028,2.016,9.891
	c0,6.889-1.975,12.411-5.922,16.569c-3.949,4.158-9.031,6.237-15.246,6.237C124.777,90.216,119.737,88.159,115.875,84.042z"/>
<path fill="#1A1A1A" d="M197.13,1.008h6.427c0.838,0,1.26,0.421,1.26,1.26v85.68c0,0.84-0.422,1.26-1.26,1.26h-6.427
	c-0.841,0-1.26-0.419-1.26-1.26v-38.43c0-0.335-0.169-0.504-0.504-0.504h-22.429c-0.336,0-0.504,0.169-0.504,0.504v38.43
	c0,0.84-0.421,1.26-1.26,1.26h-6.426c-0.841,0-1.26-0.419-1.26-1.26V2.268c0-0.839,0.419-1.26,1.26-1.26h6.426
	c0.839,0,1.26,0.421,1.26,1.26v38.304c0,0.337,0.168,0.504,0.504,0.504h22.429c0.335,0,0.504-0.167,0.504-0.504V2.268
	C195.87,1.429,196.289,1.008,197.13,1.008z"/>
<path fill="#1A1A1A" d="M218.459,87.948V2.268c0-0.839,0.42-1.26,1.261-1.26h6.426c0.839,0,1.261,0.421,1.261,1.26v85.68
	c0,0.84-0.422,1.26-1.261,1.26h-6.426C218.879,89.208,218.459,88.789,218.459,87.948z"/>
<circle fill="#E8E8E6" stroke="#1A1A1A" stroke-width="14" stroke-miterlimit="10" cx="289.959" cy="89.174" r="44.218"/>
<path fill="#1A1A1A" d="M290.139,92.868c0,1.733-0.254,3.373-0.761,4.92s-1.214,2.84-2.12,3.879
	c-1.494,1.734-3.64,2.601-6.439,2.601c-1.36,0-2.574-0.313-3.641-0.94c-1.066-0.625-2.014-1.793-2.84-3.5l-1.199,4.041h-3.08V75.667
	l-3.08-0.76v-2.24h8.16v11.92c0.799-1.013,1.692-1.72,2.68-2.12c0.986-0.4,2.093-0.6,3.32-0.6c1.359,0,2.593,0.2,3.699,0.6
	s2.006,1.04,2.7,1.92c0.826,1.014,1.466,2.254,1.92,3.72C289.911,89.575,290.139,91.161,290.139,92.868z M275.139,93.067
	c0,1.6,0.133,2.907,0.399,3.92c0.267,1.014,0.601,1.84,1,2.48c0.427,0.667,0.933,1.188,1.521,1.561
	c0.586,0.373,1.306,0.56,2.16,0.56c0.853,0,1.525-0.181,2.02-0.54c0.493-0.36,0.913-0.82,1.26-1.381c0.4-0.692,0.707-1.525,0.92-2.5
	c0.213-0.973,0.32-2.152,0.32-3.539c0-1.52-0.113-2.873-0.34-4.061c-0.227-1.186-0.514-2.153-0.86-2.9
	c-0.319-0.693-0.747-1.22-1.28-1.58c-0.533-0.36-1.227-0.54-2.08-0.54c-0.72,0-1.406,0.134-2.06,0.4
	c-0.653,0.267-1.181,0.747-1.58,1.44c-0.399,0.694-0.733,1.58-1,2.66S275.139,91.468,275.139,93.067z"/>
<path fill="#1A1A1A" d="M312.299,85.268l-6.44,17.64c-0.88,2.054-1.681,3.713-2.4,4.98c-0.72,1.266-1.514,2.18-2.38,2.74
	c-0.867,0.56-1.994,0.84-3.38,0.84c-1.254,0-2.327-0.334-3.22-1c-0.895-0.667-1.34-1.507-1.34-2.52c0-0.934,0.272-1.701,0.819-2.301
	c0.546-0.6,1.261-0.9,2.14-0.9c0.773,0,1.367,0.174,1.781,0.521c0.412,0.347,0.619,0.866,0.619,1.56c0,0.267-0.14,0.634-0.42,1.101
	c-0.279,0.466-0.754,0.7-1.42,0.7c0.053,0.266,0.213,0.445,0.48,0.539c0.266,0.094,0.492,0.141,0.68,0.141
	c0.373,0,0.72-0.074,1.04-0.22c0.319-0.147,0.659-0.487,1.021-1.021c0.359-0.533,0.752-1.347,1.18-2.439l0.479-1.48l-8.04-18.88
	l-2.4-0.76v-2.24h10.16l0.32,2.24l-2.84,0.76l4.92,13.88h0.16l4.439-13.88l-2.32-0.76v-2.24h8.801v2.24L312.299,85.268z"/>
<path fill="#1A1A1A" d="M13.39,146.229c2.167,0,4.019-0.411,5.558-1.235c1.538-0.822,2.308-1.971,2.308-3.445
	c0-1.17-0.466-2.145-1.397-2.924c-0.933-0.781-2.103-1.431-3.51-1.951c-1.409-0.52-2.85-0.996-4.322-1.43
	c-1.777-0.563-3.489-1.277-5.135-2.145c-1.647-0.867-2.99-2.025-4.03-3.478s-1.56-3.282-1.56-5.493c0-3.119,1.137-5.622,3.413-7.507
	c2.275-1.886,5.492-2.827,9.652-2.827c3.986,0,7.16,0.834,9.522,2.502c2.361,1.669,3.542,3.824,3.542,6.468
	c0,1.474-0.401,2.61-1.203,3.412c-0.802,0.803-1.896,1.202-3.282,1.202c-1.387,0-2.47-0.334-3.25-1.007
	c-0.78-0.671-1.17-1.462-1.17-2.372c0-0.736,0.216-1.451,0.65-2.146c0.433-0.692,0.996-1.191,1.69-1.495
	c-0.563-0.822-1.365-1.463-2.405-1.918c-1.04-0.455-2.319-0.682-3.835-0.682c-1.994,0-3.5,0.422-4.517,1.268
	c-1.019,0.845-1.528,2.025-1.528,3.542c0,1.128,0.26,2.069,0.78,2.827c0.52,0.76,1.245,1.377,2.177,1.854
	c0.932,0.477,2.025,0.91,3.283,1.299c1.732,0.521,3.434,1.063,5.103,1.625c1.667,0.564,3.174,1.258,4.518,2.08
	c1.342,0.824,2.415,1.832,3.217,3.023c0.801,1.191,1.203,2.633,1.203,4.322c0,2.254-0.694,4.171-2.08,5.752
	c-1.387,1.582-3.261,2.785-5.623,3.607c-2.362,0.823-5.016,1.235-7.962,1.235c-4.118,0-7.345-0.769-9.685-2.308
	C1.17,146.349,0,144.301,0,141.743c0-1.775,0.498-3.162,1.495-4.16c0.997-0.996,2.188-1.494,3.575-1.494
	c1.04,0,2.004,0.292,2.893,0.877c0.888,0.585,1.333,1.42,1.333,2.502c0,0.781-0.239,1.539-0.715,2.275
	c-0.477,0.738-1.019,1.279-1.625,1.625c0.433,0.693,1.148,1.344,2.145,1.95C10.097,145.926,11.526,146.229,13.39,146.229z"/>
<path fill="#1A1A1A" d="M58.584,144.669v-12.545c0-2.816-0.076-4.908-0.228-6.273c-0.152-1.365-0.422-2.459-0.813-3.282
	c-1.04-2.122-2.947-3.185-5.72-3.185c-1.214,0-2.384,0.303-3.51,0.91c-1.127,0.607-2.015,1.473-2.665,2.6
	c-0.347,0.563-0.65,1.355-0.91,2.373c-0.26,1.018-0.39,2.264-0.39,3.736v15.666l4.355,1.234v3.641H31.089v-3.641l5.005-1.234
	v-40.951l-5.005-1.234v-3.641h13.26v21.711c1.126-2.08,2.61-3.727,4.452-4.94c1.842-1.212,3.868-1.819,6.078-1.819
	c1.863,0,3.434,0.227,4.712,0.682c1.278,0.455,2.394,1.182,3.348,2.178c1.343,1.388,2.329,3.24,2.958,5.558
	c0.627,2.319,0.942,5.341,0.942,9.067v13.391l5.005,1.234v3.641H54.229v-3.641L58.584,144.669z"/>
<path fill="#1A1A1A" d="M74.424,141.874c0-3.597,1.646-6.381,4.94-8.354c3.292-1.971,8.471-3.498,15.535-4.582
	c-0.173-2.166-0.412-3.835-0.715-5.005c-0.304-1.17-0.694-2.167-1.17-2.99c-0.563-0.996-1.257-1.798-2.08-2.405
	c-0.824-0.605-1.864-0.91-3.12-0.91c-0.91,0-1.745,0.174-2.502,0.521c-0.759,0.347-1.268,0.823-1.527,1.431
	c0.606,0.303,1.029,0.779,1.268,1.43c0.237,0.65,0.357,1.213,0.357,1.689c0,1.084-0.478,2.048-1.43,2.893
	c-0.954,0.846-2.102,1.268-3.445,1.268c-1.344,0-2.405-0.443-3.185-1.332s-1.17-2.004-1.17-3.348c0-1.776,0.627-3.293,1.885-4.551
	c1.256-1.256,2.86-2.209,4.81-2.859c1.95-0.65,3.921-0.975,5.915-0.975c2.037,0,3.868,0.292,5.493,0.877s2.935,1.311,3.933,2.178
	c3.422,3.033,5.135,7.844,5.135,14.43v8.45c0,2.124,0.14,3.597,0.422,4.42c0.281,0.823,0.899,1.235,1.853,1.235h2.925v2.925
	c-3.987,1.257-6.999,1.885-9.035,1.885c-1.43,0-2.384-0.478-2.86-1.43c-0.478-0.952-0.715-2.838-0.715-5.655h-0.26
	c-1.344,2.21-3.12,3.943-5.33,5.2s-4.594,1.885-7.15,1.885c-2.73,0-4.875-0.736-6.435-2.21
	C75.204,146.511,74.424,144.474,74.424,141.874z M87.164,145.448c0.91,0,1.917-0.303,3.022-0.91
	c1.105-0.605,2.069-1.451,2.893-2.535c0.477-0.605,0.931-1.473,1.365-2.6c0.433-1.126,0.65-2.47,0.65-4.029
	c0-0.521-0.022-1.105-0.065-1.756c-0.044-0.65-0.109-1.256-0.195-1.82c-2.99,0.65-5.341,1.344-7.052,2.08
	c-1.712,0.738-2.925,1.615-3.64,2.633c-0.715,1.02-1.072,2.266-1.072,3.738c0,1.863,0.433,3.195,1.3,3.997
	C85.235,145.048,86.167,145.448,87.164,145.448z"/>
<path fill="#1A1A1A" d="M115.874,144.669v-25.351l-5.005-1.235v-3.64h11.31l1.43,6.5h0.26c1.3-2.21,3.055-3.954,5.265-5.232
	c2.21-1.278,4.572-1.917,7.085-1.917c3.596,0,6.261,1.17,7.995,3.51c0.867,1.213,1.484,2.914,1.853,5.102
	c0.368,2.189,0.553,5.146,0.553,8.873v13.391l5.005,1.234v3.641h-17.615v-3.641l4.355-1.234v-12.545
	c0-2.601-0.076-4.625-0.227-6.078c-0.152-1.451-0.423-2.609-0.813-3.478c-0.478-1.126-1.127-1.906-1.95-2.34
	c-0.824-0.433-1.799-0.649-2.925-0.649c-2.124,0-3.922,0.693-5.395,2.08c-1.777,1.646-2.752,4.182-2.925,7.604v15.405l4.355,1.234
	v3.641h-17.615v-3.641L115.874,144.669z"/>
<path fill="#1A1A1A" d="M152.931,132.059c0-2.86,0.4-5.535,1.202-8.028c0.801-2.49,1.874-4.494,3.218-6.012
	c1.256-1.387,2.751-2.438,4.485-3.152c1.732-0.715,3.683-1.072,5.85-1.072c2.037,0,3.835,0.368,5.395,1.104
	c1.56,0.737,2.968,2.059,4.226,3.965v-15.146l-5.006-1.234v-3.641h13.26v45.826l5.006,1.234v3.641l-12.025,0.649l-0.52-5.33
	c-1.344,1.993-2.86,3.38-4.551,4.16c-1.689,0.78-3.662,1.17-5.915,1.17c-2.384,0-4.388-0.357-6.013-1.072
	c-1.625-0.716-3.001-1.723-4.127-3.022c-1.344-1.517-2.427-3.499-3.25-5.947C153.342,137.703,152.931,135.006,152.931,132.059z
	 M177.306,132.253c0-2.512-0.219-4.701-0.65-6.564c-0.434-1.863-0.954-3.271-1.561-4.225c-0.65-1.041-1.463-1.842-2.438-2.405
	s-2.156-0.845-3.542-0.845c-1.04,0-2.102,0.217-3.185,0.649c-1.084,0.435-1.929,1.214-2.535,2.341
	c-0.564,1.039-0.986,2.469-1.268,4.289c-0.282,1.82-0.422,3.814-0.422,5.98c0,2.514,0.172,4.702,0.52,6.564
	c0.346,1.864,0.78,3.294,1.3,4.291c0.606,1.083,1.44,1.939,2.502,2.566c1.062,0.629,2.199,0.943,3.413,0.943
	c0.996,0,2.015-0.229,3.055-0.684c1.04-0.454,1.906-1.223,2.6-2.307c0.693-1.127,1.235-2.61,1.625-4.453
	C177.111,136.555,177.306,134.507,177.306,132.253z"/>
<path fill="#1A1A1A" d="M224.41,119.318l-10.465,28.665c-1.43,3.336-2.73,6.033-3.9,8.093c-1.17,2.058-2.459,3.542-3.867,4.452
	s-3.24,1.365-5.492,1.365c-2.038,0-3.782-0.543-5.233-1.625c-1.453-1.084-2.178-2.449-2.178-4.096c0-1.517,0.443-2.762,1.332-3.736
	c0.889-0.976,2.048-1.463,3.479-1.463c1.256,0,2.219,0.281,2.893,0.845c0.67,0.563,1.006,1.407,1.006,2.535
	c0,0.433-0.227,1.028-0.682,1.788c-0.455,0.757-1.225,1.137-2.307,1.137c0.086,0.433,0.346,0.725,0.779,0.877
	c0.432,0.152,0.801,0.229,1.106,0.229c0.605,0,1.17-0.12,1.689-0.357c0.52-0.239,1.072-0.791,1.658-1.658
	c0.584-0.867,1.223-2.188,1.916-3.965l0.781-2.404l-13.066-30.681l-3.899-1.235v-3.64h16.51l0.52,3.64l-4.615,1.235l7.996,22.556
	h0.26l7.215-22.556l-3.771-1.235v-3.64h14.301v3.64L224.41,119.318z"/>
</svg>
